<svg width="528" height="512" viewBox="0 0 528 512" fill="none" xmlns="http://www.w3.org/2000/svg">
<path d="M263.9 0C273.1 0 281.5 5.2 285.5 13.5L354.1 154.8L507.3 177.4C516.3 178.7 523.8 185 526.6 193.7C529.4 202.4 527.1 211.8 520.7 218.2L409.6 328.4L435.8 484C437.3 493 433.6 502.1 426.1 507.5C418.6 512.9 408.8 513.5 400.8 509.2L263.8 436L127 509.1C118.9 513.4 109.1 512.8 101.7 507.4C94.2999 502 90.4999 492.9 91.9999 483.9L118.2 328.3L7.09989 218.2C0.599893 211.8 -1.60011 202.3 1.19989 193.7C3.99989 185.1 11.4999 178.8 20.4999 177.4L173.7 154.8L242.3 13.5C246.4 5.2 254.7 0 263.9 0ZM263.9 79V191L263.8 213.5V257.5V322.5V353V377V384.5C263.8 384.5 268.2 383.7 275.2 387.5L380.4 443.7L360.2 324.1C358.9 316.4 361.4 308.6 367 303.1L452.9 218L334.6 200.5C326.8 199.3 320 194.4 316.5 187.2L263.9 79Z" fill="#FFBD2E"/>
</svg>
